<mxfile host="app.diagrams.net" agent="Mozilla/5.0 (Windows NT 10.0; Win64; x64) AppleWebKit/537.36 (KHTML, like Gecko) Chrome/141.0.0.0 Safari/537.36 Edg/141.0.0.0" version="28.2.8">
  <diagram name="Page-1" id="Qh66qdQzl6UCUVbuFPbh">
    <mxGraphModel dx="3070" dy="717" grid="1" gridSize="10" guides="1" tooltips="1" connect="1" arrows="1" fold="1" page="1" pageScale="1" pageWidth="1654" pageHeight="1169" background="light-dark(#FFFFFF,#000000)" math="0" shadow="0">
      <root>
        <mxCell id="0" />
        <mxCell id="1" parent="0" />
        <mxCell id="bX-nkgjppk_giDj6LDvc-8" value="&lt;font&gt;USER&lt;/font&gt;" style="rounded=0;whiteSpace=wrap;html=1;fontSize=20;labelBackgroundColor=default;" parent="1" vertex="1">
          <mxGeometry x="1130" y="430" width="160" height="60" as="geometry" />
        </mxCell>
        <mxCell id="bX-nkgjppk_giDj6LDvc-9" value="" style="endArrow=none;html=1;rounded=0;fontSize=20;" parent="1" edge="1">
          <mxGeometry width="50" height="50" relative="1" as="geometry">
            <mxPoint x="1210" y="430" as="sourcePoint" />
            <mxPoint x="1210" y="360" as="targetPoint" />
          </mxGeometry>
        </mxCell>
        <mxCell id="bX-nkgjppk_giDj6LDvc-12" value="Password" style="ellipse;whiteSpace=wrap;html=1;fontSize=20;" parent="1" vertex="1">
          <mxGeometry x="1130" y="290" width="150" height="70" as="geometry" />
        </mxCell>
        <mxCell id="bX-nkgjppk_giDj6LDvc-14" value="&lt;u&gt;User_Id&lt;/u&gt;" style="ellipse;whiteSpace=wrap;html=1;fontSize=20;" parent="1" vertex="1">
          <mxGeometry x="930" y="390" width="140" height="55" as="geometry" />
        </mxCell>
        <mxCell id="bX-nkgjppk_giDj6LDvc-15" value="" style="endArrow=none;html=1;rounded=0;exitX=1;exitY=0.5;exitDx=0;exitDy=0;fontSize=20;" parent="1" source="bX-nkgjppk_giDj6LDvc-14" edge="1">
          <mxGeometry width="50" height="50" relative="1" as="geometry">
            <mxPoint x="1080" y="510" as="sourcePoint" />
            <mxPoint x="1130" y="460" as="targetPoint" />
          </mxGeometry>
        </mxCell>
        <mxCell id="bX-nkgjppk_giDj6LDvc-20" value="Name" style="ellipse;whiteSpace=wrap;html=1;fontSize=20;" parent="1" vertex="1">
          <mxGeometry x="1420" y="375" width="140" height="55" as="geometry" />
        </mxCell>
        <mxCell id="bX-nkgjppk_giDj6LDvc-21" value="" style="endArrow=none;html=1;rounded=0;exitX=1;exitY=0.5;exitDx=0;exitDy=0;entryX=0.046;entryY=0.218;entryDx=0;entryDy=0;entryPerimeter=0;fontSize=20;" parent="1" edge="1">
          <mxGeometry width="50" height="50" relative="1" as="geometry">
            <mxPoint x="1290" y="490" as="sourcePoint" />
            <mxPoint x="1416.44" y="411.99" as="targetPoint" />
            <Array as="points" />
          </mxGeometry>
        </mxCell>
        <mxCell id="bX-nkgjppk_giDj6LDvc-22" value="Email" style="ellipse;whiteSpace=wrap;html=1;fontSize=20;" parent="1" vertex="1">
          <mxGeometry x="950" y="297.5" width="140" height="55" as="geometry" />
        </mxCell>
        <mxCell id="bX-nkgjppk_giDj6LDvc-23" value="" style="endArrow=none;html=1;rounded=0;exitX=0.129;exitY=-0.043;exitDx=0;exitDy=0;exitPerimeter=0;fontSize=20;" parent="1" source="bX-nkgjppk_giDj6LDvc-8" edge="1">
          <mxGeometry width="50" height="50" relative="1" as="geometry">
            <mxPoint x="1080" y="412.5" as="sourcePoint" />
            <mxPoint x="1080" y="342.5" as="targetPoint" />
          </mxGeometry>
        </mxCell>
        <mxCell id="bX-nkgjppk_giDj6LDvc-25" value="" style="endArrow=none;html=1;rounded=0;fontSize=20;" parent="1" edge="1">
          <mxGeometry width="50" height="50" relative="1" as="geometry">
            <mxPoint x="1200" y="570" as="sourcePoint" />
            <mxPoint x="1200" y="490" as="targetPoint" />
          </mxGeometry>
        </mxCell>
        <mxCell id="bX-nkgjppk_giDj6LDvc-26" value="" style="endArrow=none;html=1;rounded=0;fontSize=20;" parent="1" edge="1">
          <mxGeometry width="50" height="50" relative="1" as="geometry">
            <mxPoint x="1209.29" y="570" as="sourcePoint" />
            <mxPoint x="1209.29" y="490" as="targetPoint" />
          </mxGeometry>
        </mxCell>
        <mxCell id="bX-nkgjppk_giDj6LDvc-27" value="d" style="ellipse;whiteSpace=wrap;html=1;aspect=fixed;fontSize=20;" parent="1" vertex="1">
          <mxGeometry x="1180" y="570" width="50" height="50" as="geometry" />
        </mxCell>
        <mxCell id="bX-nkgjppk_giDj6LDvc-28" value="" style="endArrow=none;html=1;rounded=0;exitX=0.57;exitY=0.014;exitDx=0;exitDy=0;exitPerimeter=0;fontSize=20;" parent="1" source="bX-nkgjppk_giDj6LDvc-31" edge="1">
          <mxGeometry width="50" height="50" relative="1" as="geometry">
            <mxPoint x="1070" y="710" as="sourcePoint" />
            <mxPoint x="1180" y="610" as="targetPoint" />
          </mxGeometry>
        </mxCell>
        <mxCell id="bX-nkgjppk_giDj6LDvc-29" value="" style="endArrow=none;html=1;rounded=0;fontSize=20;" parent="1" edge="1">
          <mxGeometry width="50" height="50" relative="1" as="geometry">
            <mxPoint x="1204.29" y="720" as="sourcePoint" />
            <mxPoint x="1204.29" y="620" as="targetPoint" />
          </mxGeometry>
        </mxCell>
        <mxCell id="bX-nkgjppk_giDj6LDvc-30" value="" style="endArrow=none;html=1;rounded=0;entryX=1;entryY=1;entryDx=0;entryDy=0;exitX=0.25;exitY=0;exitDx=0;exitDy=0;fontSize=20;" parent="1" source="bX-nkgjppk_giDj6LDvc-33" target="bX-nkgjppk_giDj6LDvc-27" edge="1">
          <mxGeometry width="50" height="50" relative="1" as="geometry">
            <mxPoint x="1340" y="700" as="sourcePoint" />
            <mxPoint x="1240" y="620" as="targetPoint" />
          </mxGeometry>
        </mxCell>
        <mxCell id="bX-nkgjppk_giDj6LDvc-31" value="&lt;font&gt;STUDENT&lt;/font&gt;" style="rounded=0;whiteSpace=wrap;html=1;fontSize=20;" parent="1" vertex="1">
          <mxGeometry x="960" y="710" width="150" height="60" as="geometry" />
        </mxCell>
        <mxCell id="bX-nkgjppk_giDj6LDvc-32" value="&lt;font&gt;TECH_OFFICER&lt;/font&gt;" style="rounded=0;whiteSpace=wrap;html=1;fontSize=20;" parent="1" vertex="1">
          <mxGeometry x="1130" y="710" width="175" height="60" as="geometry" />
        </mxCell>
        <mxCell id="bX-nkgjppk_giDj6LDvc-33" value="&lt;font&gt;LECTURE&lt;/font&gt;" style="rounded=0;whiteSpace=wrap;html=1;fontSize=20;" parent="1" vertex="1">
          <mxGeometry x="1320" y="710" width="150" height="60" as="geometry" />
        </mxCell>
        <mxCell id="UqmcxjYlmGOQxnhvRvWn-1" value="" style="endArrow=none;html=1;rounded=0;entryX=0.458;entryY=1.011;entryDx=0;entryDy=0;entryPerimeter=0;fontSize=20;" parent="1" target="bX-nkgjppk_giDj6LDvc-31" edge="1">
          <mxGeometry width="50" height="50" relative="1" as="geometry">
            <mxPoint x="1034.29" y="980" as="sourcePoint" />
            <mxPoint x="1034.29" y="770" as="targetPoint" />
          </mxGeometry>
        </mxCell>
        <mxCell id="UqmcxjYlmGOQxnhvRvWn-2" value="STUDYING" style="rhombus;whiteSpace=wrap;html=1;fontSize=20;" parent="1" vertex="1">
          <mxGeometry x="955" y="980" width="160" height="150" as="geometry" />
        </mxCell>
        <mxCell id="UqmcxjYlmGOQxnhvRvWn-3" value="" style="endArrow=none;html=1;rounded=0;entryX=0.5;entryY=1;entryDx=0;entryDy=0;exitX=0.5;exitY=0;exitDx=0;exitDy=0;fontSize=20;" parent="1" source="UqmcxjYlmGOQxnhvRvWn-4" target="UqmcxjYlmGOQxnhvRvWn-2" edge="1">
          <mxGeometry width="50" height="50" relative="1" as="geometry">
            <mxPoint x="1030" y="1310" as="sourcePoint" />
            <mxPoint x="1060" y="1150" as="targetPoint" />
          </mxGeometry>
        </mxCell>
        <mxCell id="UqmcxjYlmGOQxnhvRvWn-4" value="&lt;font&gt;COURSE&lt;/font&gt;" style="rounded=0;whiteSpace=wrap;html=1;fontSize=20;" parent="1" vertex="1">
          <mxGeometry x="960" y="1310" width="160" height="60" as="geometry" />
        </mxCell>
        <mxCell id="UqmcxjYlmGOQxnhvRvWn-5" value="HAS" style="rhombus;whiteSpace=wrap;html=1;fontSize=20;" parent="1" vertex="1">
          <mxGeometry x="510" y="680" width="160" height="150" as="geometry" />
        </mxCell>
        <mxCell id="UqmcxjYlmGOQxnhvRvWn-14" value="" style="endArrow=none;html=1;rounded=0;fontSize=20;" parent="1" edge="1">
          <mxGeometry width="50" height="50" relative="1" as="geometry">
            <mxPoint x="1400" y="870" as="sourcePoint" />
            <mxPoint x="1400" y="770" as="targetPoint" />
          </mxGeometry>
        </mxCell>
        <mxCell id="UqmcxjYlmGOQxnhvRvWn-15" value="" style="endArrow=none;html=1;rounded=0;fontSize=20;" parent="1" edge="1">
          <mxGeometry width="50" height="50" relative="1" as="geometry">
            <mxPoint x="1410" y="870" as="sourcePoint" />
            <mxPoint x="1410" y="770" as="targetPoint" />
          </mxGeometry>
        </mxCell>
        <mxCell id="UqmcxjYlmGOQxnhvRvWn-16" value="o" style="ellipse;whiteSpace=wrap;html=1;aspect=fixed;fontSize=20;" parent="1" vertex="1">
          <mxGeometry x="1380" y="870" width="50" height="50" as="geometry" />
        </mxCell>
        <mxCell id="UqmcxjYlmGOQxnhvRvWn-17" value="" style="endArrow=none;html=1;rounded=0;fontSize=20;" parent="1" target="UqmcxjYlmGOQxnhvRvWn-16" edge="1">
          <mxGeometry width="50" height="50" relative="1" as="geometry">
            <mxPoint x="1404.29" y="990" as="sourcePoint" />
            <mxPoint x="1404.29" y="930" as="targetPoint" />
          </mxGeometry>
        </mxCell>
        <mxCell id="UqmcxjYlmGOQxnhvRvWn-18" value="&lt;font&gt;DEAN&lt;/font&gt;" style="rounded=0;whiteSpace=wrap;html=1;fontSize=20;" parent="1" vertex="1">
          <mxGeometry x="1335" y="977.5" width="150" height="60" as="geometry" />
        </mxCell>
        <mxCell id="UqmcxjYlmGOQxnhvRvWn-20" value="" style="endArrow=none;html=1;rounded=0;entryX=0.25;entryY=1;entryDx=0;entryDy=0;fontSize=20;" parent="1" target="UqmcxjYlmGOQxnhvRvWn-18" edge="1">
          <mxGeometry width="50" height="50" relative="1" as="geometry">
            <mxPoint x="1373" y="1130" as="sourcePoint" />
            <mxPoint x="1380.71" y="1060" as="targetPoint" />
          </mxGeometry>
        </mxCell>
        <mxCell id="UqmcxjYlmGOQxnhvRvWn-22" value="&lt;u&gt;Lecture_Id&lt;/u&gt;" style="ellipse;whiteSpace=wrap;html=1;fontSize=20;" parent="1" vertex="1">
          <mxGeometry x="1310" y="1130" width="140" height="55" as="geometry" />
        </mxCell>
        <mxCell id="UqmcxjYlmGOQxnhvRvWn-23" value="" style="endArrow=none;html=1;rounded=0;exitX=0.5;exitY=0;exitDx=0;exitDy=0;fontSize=20;" parent="1" edge="1">
          <mxGeometry width="50" height="50" relative="1" as="geometry">
            <mxPoint x="670" y="750" as="sourcePoint" />
            <mxPoint x="950" y="750" as="targetPoint" />
            <Array as="points" />
          </mxGeometry>
        </mxCell>
        <mxCell id="UqmcxjYlmGOQxnhvRvWn-24" value="OBTAIN" style="rhombus;whiteSpace=wrap;html=1;fontSize=20;" parent="1" vertex="1">
          <mxGeometry x="570" y="1000" width="160" height="150" as="geometry" />
        </mxCell>
        <mxCell id="UqmcxjYlmGOQxnhvRvWn-25" value="" style="endArrow=none;html=1;rounded=0;entryX=0;entryY=0.75;entryDx=0;entryDy=0;exitX=1;exitY=0.5;exitDx=0;exitDy=0;fontSize=20;" parent="1" source="UqmcxjYlmGOQxnhvRvWn-24" target="bX-nkgjppk_giDj6LDvc-31" edge="1">
          <mxGeometry width="50" height="50" relative="1" as="geometry">
            <mxPoint x="720" y="960" as="sourcePoint" />
            <mxPoint x="955" y="907.5" as="targetPoint" />
            <Array as="points" />
          </mxGeometry>
        </mxCell>
        <mxCell id="UqmcxjYlmGOQxnhvRvWn-26" value="" style="endArrow=none;html=1;rounded=0;fontSize=20;" parent="1" edge="1">
          <mxGeometry width="50" height="50" relative="1" as="geometry">
            <mxPoint x="320" y="1260" as="sourcePoint" />
            <mxPoint x="320" y="1150" as="targetPoint" />
          </mxGeometry>
        </mxCell>
        <mxCell id="UqmcxjYlmGOQxnhvRvWn-27" value="&lt;font&gt;MARKS&lt;/font&gt;" style="rounded=0;whiteSpace=wrap;html=1;fontSize=20;" parent="1" vertex="1">
          <mxGeometry x="255" y="1237.5" width="150" height="60" as="geometry" />
        </mxCell>
        <mxCell id="UqmcxjYlmGOQxnhvRvWn-28" value="" style="endArrow=none;html=1;rounded=0;fontSize=20;" parent="1" edge="1">
          <mxGeometry width="50" height="50" relative="1" as="geometry">
            <mxPoint x="380" y="750" as="sourcePoint" />
            <mxPoint x="510" y="750" as="targetPoint" />
          </mxGeometry>
        </mxCell>
        <mxCell id="UqmcxjYlmGOQxnhvRvWn-29" value="&lt;font&gt;RESULT&lt;/font&gt;" style="rounded=0;whiteSpace=wrap;html=1;fontSize=20;" parent="1" vertex="1">
          <mxGeometry x="230" y="720" width="150" height="60" as="geometry" />
        </mxCell>
        <mxCell id="UqmcxjYlmGOQxnhvRvWn-30" value="" style="endArrow=none;html=1;rounded=0;fontSize=20;" parent="1" edge="1">
          <mxGeometry width="50" height="50" relative="1" as="geometry">
            <mxPoint x="150" y="1370" as="sourcePoint" />
            <mxPoint x="280" y="1300" as="targetPoint" />
          </mxGeometry>
        </mxCell>
        <mxCell id="UqmcxjYlmGOQxnhvRvWn-31" value="Quiz2_Marks" style="ellipse;whiteSpace=wrap;html=1;fontSize=20;" parent="1" vertex="1">
          <mxGeometry x="70" y="1345" width="140" height="55" as="geometry" />
        </mxCell>
        <mxCell id="UqmcxjYlmGOQxnhvRvWn-32" value="Quiz3_Marks" style="ellipse;whiteSpace=wrap;html=1;fontSize=20;" parent="1" vertex="1">
          <mxGeometry y="1280" width="140" height="55" as="geometry" />
        </mxCell>
        <mxCell id="UqmcxjYlmGOQxnhvRvWn-33" value="Final_Theory" style="ellipse;whiteSpace=wrap;html=1;fontSize=20;" parent="1" vertex="1">
          <mxGeometry x="10" y="1210" width="140" height="55" as="geometry" />
        </mxCell>
        <mxCell id="UqmcxjYlmGOQxnhvRvWn-34" value="&lt;u&gt;Marks_Id&lt;/u&gt;" style="ellipse;whiteSpace=wrap;html=1;fontSize=20;" parent="1" vertex="1">
          <mxGeometry x="430" y="1317.5" width="140" height="55" as="geometry" />
        </mxCell>
        <mxCell id="UqmcxjYlmGOQxnhvRvWn-35" value="Quiz1_Marks" style="ellipse;whiteSpace=wrap;html=1;fontSize=20;" parent="1" vertex="1">
          <mxGeometry x="210" y="1372.5" width="140" height="55" as="geometry" />
        </mxCell>
        <mxCell id="UqmcxjYlmGOQxnhvRvWn-36" value="Final_Practical" style="ellipse;whiteSpace=wrap;html=1;fontSize=20;" parent="1" vertex="1">
          <mxGeometry x="255" y="1110" width="140" height="55" as="geometry" />
        </mxCell>
        <mxCell id="UqmcxjYlmGOQxnhvRvWn-37" value="" style="endArrow=none;html=1;rounded=0;entryX=0.5;entryY=1;entryDx=0;entryDy=0;fontSize=20;" parent="1" target="UqmcxjYlmGOQxnhvRvWn-27" edge="1">
          <mxGeometry width="50" height="50" relative="1" as="geometry">
            <mxPoint x="310" y="1380" as="sourcePoint" />
            <mxPoint x="440" y="1310" as="targetPoint" />
          </mxGeometry>
        </mxCell>
        <mxCell id="UqmcxjYlmGOQxnhvRvWn-38" value="" style="endArrow=none;html=1;rounded=0;exitX=0.24;exitY=0.13;exitDx=0;exitDy=0;exitPerimeter=0;fontSize=20;" parent="1" edge="1">
          <mxGeometry width="50" height="50" relative="1" as="geometry">
            <mxPoint x="463.5999999999999" y="1319.6500000000003" as="sourcePoint" />
            <mxPoint x="390" y="1297.5" as="targetPoint" />
          </mxGeometry>
        </mxCell>
        <mxCell id="UqmcxjYlmGOQxnhvRvWn-39" value="" style="endArrow=none;html=1;rounded=0;exitX=0.997;exitY=0.312;exitDx=0;exitDy=0;exitPerimeter=0;fontSize=20;" parent="1" source="UqmcxjYlmGOQxnhvRvWn-32" edge="1">
          <mxGeometry width="50" height="50" relative="1" as="geometry">
            <mxPoint x="120" y="1350" as="sourcePoint" />
            <mxPoint x="250" y="1280" as="targetPoint" />
          </mxGeometry>
        </mxCell>
        <mxCell id="UqmcxjYlmGOQxnhvRvWn-40" value="" style="endArrow=none;html=1;rounded=0;exitX=1;exitY=0.5;exitDx=0;exitDy=0;entryX=0;entryY=0.25;entryDx=0;entryDy=0;fontSize=20;" parent="1" source="UqmcxjYlmGOQxnhvRvWn-33" target="UqmcxjYlmGOQxnhvRvWn-27" edge="1">
          <mxGeometry width="50" height="50" relative="1" as="geometry">
            <mxPoint x="110" y="1240" as="sourcePoint" />
            <mxPoint x="240" y="1170" as="targetPoint" />
          </mxGeometry>
        </mxCell>
        <mxCell id="UqmcxjYlmGOQxnhvRvWn-43" value="" style="endArrow=none;html=1;rounded=0;entryX=0;entryY=0.5;entryDx=0;entryDy=0;fontSize=20;" parent="1" target="UqmcxjYlmGOQxnhvRvWn-24" edge="1">
          <mxGeometry width="50" height="50" relative="1" as="geometry">
            <mxPoint x="400" y="1275" as="sourcePoint" />
            <mxPoint x="700" y="1120" as="targetPoint" />
          </mxGeometry>
        </mxCell>
        <mxCell id="UqmcxjYlmGOQxnhvRvWn-44" value="Cgpa" style="ellipse;whiteSpace=wrap;html=1;fontSize=20;" parent="1" vertex="1">
          <mxGeometry x="350" y="820" width="140" height="55" as="geometry" />
        </mxCell>
        <mxCell id="UqmcxjYlmGOQxnhvRvWn-45" value="&lt;u&gt;Result_Id&lt;/u&gt;" style="ellipse;whiteSpace=wrap;html=1;fontSize=20;" parent="1" vertex="1">
          <mxGeometry x="40" y="740" width="140" height="55" as="geometry" />
        </mxCell>
        <mxCell id="UqmcxjYlmGOQxnhvRvWn-47" value="Sgpa" style="ellipse;whiteSpace=wrap;html=1;fontSize=20;" parent="1" vertex="1">
          <mxGeometry x="190" y="830" width="140" height="55" as="geometry" />
        </mxCell>
        <mxCell id="UqmcxjYlmGOQxnhvRvWn-49" value="" style="endArrow=none;html=1;rounded=0;exitX=0.5;exitY=0;exitDx=0;exitDy=0;fontSize=20;" parent="1" source="UqmcxjYlmGOQxnhvRvWn-47" edge="1">
          <mxGeometry width="50" height="50" relative="1" as="geometry">
            <mxPoint x="280" y="890" as="sourcePoint" />
            <mxPoint x="280" y="780" as="targetPoint" />
          </mxGeometry>
        </mxCell>
        <mxCell id="UqmcxjYlmGOQxnhvRvWn-50" value="" style="endArrow=none;html=1;rounded=0;fontSize=20;" parent="1" source="UqmcxjYlmGOQxnhvRvWn-44" edge="1">
          <mxGeometry width="50" height="50" relative="1" as="geometry">
            <mxPoint x="360" y="890" as="sourcePoint" />
            <mxPoint x="360" y="780" as="targetPoint" />
          </mxGeometry>
        </mxCell>
        <mxCell id="UqmcxjYlmGOQxnhvRvWn-51" value="" style="endArrow=none;html=1;rounded=0;entryX=0.998;entryY=0.291;entryDx=0;entryDy=0;entryPerimeter=0;exitX=0;exitY=0.5;exitDx=0;exitDy=0;fontSize=20;" parent="1" source="UqmcxjYlmGOQxnhvRvWn-29" target="UqmcxjYlmGOQxnhvRvWn-45" edge="1">
          <mxGeometry width="50" height="50" relative="1" as="geometry">
            <mxPoint x="230" y="780" as="sourcePoint" />
            <mxPoint x="230.41" y="730" as="targetPoint" />
          </mxGeometry>
        </mxCell>
        <mxCell id="UqmcxjYlmGOQxnhvRvWn-53" value="HAS" style="rhombus;whiteSpace=wrap;html=1;fontSize=20;" parent="1" vertex="1">
          <mxGeometry x="600" y="1230" width="160" height="150" as="geometry" />
        </mxCell>
        <mxCell id="UqmcxjYlmGOQxnhvRvWn-54" value="HAS" style="rhombus;whiteSpace=wrap;html=1;fontSize=20;" parent="1" vertex="1">
          <mxGeometry x="1280" y="1265" width="160" height="150" as="geometry" />
        </mxCell>
        <mxCell id="UqmcxjYlmGOQxnhvRvWn-55" value="" style="endArrow=none;html=1;rounded=0;fontSize=20;" parent="1" target="UqmcxjYlmGOQxnhvRvWn-53" edge="1">
          <mxGeometry width="50" height="50" relative="1" as="geometry">
            <mxPoint x="400" y="1280" as="sourcePoint" />
            <mxPoint x="450" y="1230" as="targetPoint" />
          </mxGeometry>
        </mxCell>
        <mxCell id="UqmcxjYlmGOQxnhvRvWn-56" value="" style="endArrow=none;html=1;rounded=0;entryX=0;entryY=0.5;entryDx=0;entryDy=0;exitX=1;exitY=0.5;exitDx=0;exitDy=0;fontSize=20;" parent="1" source="UqmcxjYlmGOQxnhvRvWn-53" target="UqmcxjYlmGOQxnhvRvWn-4" edge="1">
          <mxGeometry width="50" height="50" relative="1" as="geometry">
            <mxPoint x="766" y="1283" as="sourcePoint" />
            <mxPoint x="987" y="1287" as="targetPoint" />
          </mxGeometry>
        </mxCell>
        <mxCell id="UqmcxjYlmGOQxnhvRvWn-58" value="" style="endArrow=none;html=1;rounded=0;entryX=0.5;entryY=0;entryDx=0;entryDy=0;exitX=0.577;exitY=0.955;exitDx=0;exitDy=0;exitPerimeter=0;fontSize=20;" parent="1" source="bX-nkgjppk_giDj6LDvc-31" target="UqmcxjYlmGOQxnhvRvWn-54" edge="1">
          <mxGeometry width="50" height="50" relative="1" as="geometry">
            <mxPoint x="1060" y="780" as="sourcePoint" />
            <mxPoint x="1320" y="1139.5" as="targetPoint" />
            <Array as="points">
              <mxPoint x="1150" y="950" />
            </Array>
          </mxGeometry>
        </mxCell>
        <mxCell id="UqmcxjYlmGOQxnhvRvWn-59" value="Credit" style="ellipse;whiteSpace=wrap;html=1;fontSize=20;" parent="1" vertex="1">
          <mxGeometry x="840" y="1415" width="140" height="55" as="geometry" />
        </mxCell>
        <mxCell id="UqmcxjYlmGOQxnhvRvWn-60" value="Course_Name" style="ellipse;whiteSpace=wrap;html=1;fontSize=20;" parent="1" vertex="1">
          <mxGeometry x="1050" y="1425" width="140" height="55" as="geometry" />
        </mxCell>
        <mxCell id="UqmcxjYlmGOQxnhvRvWn-61" value="&lt;u&gt;Course_id&lt;/u&gt;" style="ellipse;whiteSpace=wrap;html=1;fontSize=20;" parent="1" vertex="1">
          <mxGeometry x="1135" y="1252.5" width="140" height="55" as="geometry" />
        </mxCell>
        <mxCell id="UqmcxjYlmGOQxnhvRvWn-63" value="" style="endArrow=none;html=1;rounded=0;fontSize=20;" parent="1" edge="1">
          <mxGeometry width="50" height="50" relative="1" as="geometry">
            <mxPoint x="950" y="1420" as="sourcePoint" />
            <mxPoint x="987" y="1370" as="targetPoint" />
          </mxGeometry>
        </mxCell>
        <mxCell id="UqmcxjYlmGOQxnhvRvWn-64" value="" style="endArrow=none;html=1;rounded=0;fontSize=20;entryX=0.012;entryY=0.371;entryDx=0;entryDy=0;entryPerimeter=0;exitX=0.828;exitY=0.049;exitDx=0;exitDy=0;exitPerimeter=0;" parent="1" source="UqmcxjYlmGOQxnhvRvWn-4" target="UqmcxjYlmGOQxnhvRvWn-61" edge="1">
          <mxGeometry width="50" height="50" relative="1" as="geometry">
            <mxPoint x="1083" y="1319" as="sourcePoint" />
            <mxPoint x="1120" y="1269" as="targetPoint" />
          </mxGeometry>
        </mxCell>
        <mxCell id="UqmcxjYlmGOQxnhvRvWn-65" value="" style="endArrow=none;html=1;rounded=0;exitX=0.5;exitY=0;exitDx=0;exitDy=0;fontSize=20;" parent="1" source="UqmcxjYlmGOQxnhvRvWn-60" edge="1">
          <mxGeometry width="50" height="50" relative="1" as="geometry">
            <mxPoint x="1073" y="1425" as="sourcePoint" />
            <mxPoint x="1110" y="1375" as="targetPoint" />
          </mxGeometry>
        </mxCell>
        <mxCell id="UqmcxjYlmGOQxnhvRvWn-67" value="Term_Start" style="ellipse;whiteSpace=wrap;html=1;fontSize=20;" parent="1" vertex="1">
          <mxGeometry x="1530" y="1090" width="140" height="55" as="geometry" />
        </mxCell>
        <mxCell id="UqmcxjYlmGOQxnhvRvWn-68" value="Term_End" style="ellipse;whiteSpace=wrap;html=1;fontSize=20;" parent="1" vertex="1">
          <mxGeometry x="1580" y="980" width="140" height="55" as="geometry" />
        </mxCell>
        <mxCell id="UqmcxjYlmGOQxnhvRvWn-70" value="" style="endArrow=none;html=1;rounded=0;entryX=0.25;entryY=1;entryDx=0;entryDy=0;fontSize=20;" parent="1" source="UqmcxjYlmGOQxnhvRvWn-67" edge="1">
          <mxGeometry width="50" height="50" relative="1" as="geometry">
            <mxPoint x="1480" y="1130" as="sourcePoint" />
            <mxPoint x="1480" y="1050" as="targetPoint" />
          </mxGeometry>
        </mxCell>
        <mxCell id="UqmcxjYlmGOQxnhvRvWn-72" value="" style="endArrow=none;html=1;rounded=0;entryX=0.25;entryY=1;entryDx=0;entryDy=0;exitX=0;exitY=0.5;exitDx=0;exitDy=0;fontSize=20;" parent="1" source="UqmcxjYlmGOQxnhvRvWn-68" edge="1">
          <mxGeometry width="50" height="50" relative="1" as="geometry">
            <mxPoint x="1489.17" y="1080" as="sourcePoint" />
            <mxPoint x="1489.17" y="1000" as="targetPoint" />
          </mxGeometry>
        </mxCell>
        <mxCell id="UqmcxjYlmGOQxnhvRvWn-73" value="Specilization" style="ellipse;whiteSpace=wrap;html=1;fontSize=20;" parent="1" vertex="1">
          <mxGeometry x="1470" y="610" width="140" height="55" as="geometry" />
        </mxCell>
        <mxCell id="UqmcxjYlmGOQxnhvRvWn-77" value="" style="endArrow=none;html=1;rounded=0;entryX=0.25;entryY=1;entryDx=0;entryDy=0;exitX=0.226;exitY=0.861;exitDx=0;exitDy=0;exitPerimeter=0;fontSize=20;" parent="1" source="UqmcxjYlmGOQxnhvRvWn-73" edge="1">
          <mxGeometry width="50" height="50" relative="1" as="geometry">
            <mxPoint x="1550.83" y="718" as="sourcePoint" />
            <mxPoint x="1460" y="710" as="targetPoint" />
          </mxGeometry>
        </mxCell>
        <mxCell id="UqmcxjYlmGOQxnhvRvWn-78" value="Reg_No" style="ellipse;whiteSpace=wrap;html=1;fontSize=20;" parent="1" vertex="1">
          <mxGeometry x="757" y="650" width="140" height="55" as="geometry" />
        </mxCell>
        <mxCell id="UqmcxjYlmGOQxnhvRvWn-79" value="" style="endArrow=none;html=1;rounded=0;exitX=0;exitY=0.25;exitDx=0;exitDy=0;entryX=0.698;entryY=0.943;entryDx=0;entryDy=0;entryPerimeter=0;fontSize=20;" parent="1" source="bX-nkgjppk_giDj6LDvc-31" target="UqmcxjYlmGOQxnhvRvWn-78" edge="1">
          <mxGeometry width="50" height="50" relative="1" as="geometry">
            <mxPoint x="898" y="750" as="sourcePoint" />
            <mxPoint x="910" y="700" as="targetPoint" />
          </mxGeometry>
        </mxCell>
        <mxCell id="UqmcxjYlmGOQxnhvRvWn-80" value="Final_Marks" style="ellipse;whiteSpace=wrap;html=1;fontSize=20;" parent="1" vertex="1">
          <mxGeometry x="100" y="1130" width="140" height="55" as="geometry" />
        </mxCell>
        <mxCell id="UqmcxjYlmGOQxnhvRvWn-81" value="" style="endArrow=none;html=1;rounded=0;fontSize=20;" parent="1" source="UqmcxjYlmGOQxnhvRvWn-27" edge="1">
          <mxGeometry width="50" height="50" relative="1" as="geometry">
            <mxPoint x="210" y="1300" as="sourcePoint" />
            <mxPoint x="210" y="1190" as="targetPoint" />
          </mxGeometry>
        </mxCell>
        <mxCell id="UqmcxjYlmGOQxnhvRvWn-82" value="&lt;span&gt;ATTENDANCE&lt;/span&gt;" style="rounded=0;whiteSpace=wrap;html=1;fontSize=20;" parent="1" vertex="1">
          <mxGeometry x="1690" y="1334" width="160" height="60" as="geometry" />
        </mxCell>
        <mxCell id="UqmcxjYlmGOQxnhvRvWn-83" value="&lt;u&gt;Atendance_Id&lt;/u&gt;" style="ellipse;whiteSpace=wrap;html=1;fontSize=20;" parent="1" vertex="1">
          <mxGeometry x="1640" y="1449" width="140" height="55" as="geometry" />
        </mxCell>
        <mxCell id="UqmcxjYlmGOQxnhvRvWn-84" value="Medical" style="ellipse;whiteSpace=wrap;html=1;fontSize=20;" parent="1" vertex="1">
          <mxGeometry x="1800" y="1449" width="140" height="55" as="geometry" />
        </mxCell>
        <mxCell id="UqmcxjYlmGOQxnhvRvWn-85" value="Hours_Attend" style="ellipse;whiteSpace=wrap;html=1;fontSize=20;" parent="1" vertex="1">
          <mxGeometry x="1820" y="1240" width="140" height="55" as="geometry" />
        </mxCell>
        <mxCell id="UqmcxjYlmGOQxnhvRvWn-86" value="" style="endArrow=none;html=1;rounded=0;fontSize=20;" parent="1" edge="1">
          <mxGeometry width="50" height="50" relative="1" as="geometry">
            <mxPoint x="1710" y="1450" as="sourcePoint" />
            <mxPoint x="1717" y="1394" as="targetPoint" />
          </mxGeometry>
        </mxCell>
        <mxCell id="UqmcxjYlmGOQxnhvRvWn-87" value="" style="endArrow=none;html=1;rounded=0;fontSize=20;" parent="1" edge="1">
          <mxGeometry width="50" height="50" relative="1" as="geometry">
            <mxPoint x="1790" y="1334" as="sourcePoint" />
            <mxPoint x="1827" y="1284" as="targetPoint" />
          </mxGeometry>
        </mxCell>
        <mxCell id="UqmcxjYlmGOQxnhvRvWn-88" value="" style="endArrow=none;html=1;rounded=0;exitX=0.5;exitY=0;exitDx=0;exitDy=0;fontSize=20;" parent="1" source="UqmcxjYlmGOQxnhvRvWn-84" edge="1">
          <mxGeometry width="50" height="50" relative="1" as="geometry">
            <mxPoint x="1803" y="1449" as="sourcePoint" />
            <mxPoint x="1840" y="1399" as="targetPoint" />
          </mxGeometry>
        </mxCell>
        <mxCell id="UqmcxjYlmGOQxnhvRvWn-89" value="" style="endArrow=none;html=1;rounded=0;entryX=1;entryY=0.5;entryDx=0;entryDy=0;exitX=0;exitY=0.267;exitDx=0;exitDy=0;exitPerimeter=0;fontSize=20;" parent="1" source="UqmcxjYlmGOQxnhvRvWn-82" target="UqmcxjYlmGOQxnhvRvWn-54" edge="1">
          <mxGeometry width="50" height="50" relative="1" as="geometry">
            <mxPoint x="1410" y="1560" as="sourcePoint" />
            <mxPoint x="1447" y="1510" as="targetPoint" />
          </mxGeometry>
        </mxCell>
        <mxCell id="UqmcxjYlmGOQxnhvRvWn-92" value="Status" style="ellipse;whiteSpace=wrap;html=1;fontSize=20;" parent="1" vertex="1">
          <mxGeometry x="1920" y="1339" width="140" height="55" as="geometry" />
        </mxCell>
        <mxCell id="UqmcxjYlmGOQxnhvRvWn-93" value="" style="endArrow=none;html=1;rounded=0;exitX=0;exitY=0.5;exitDx=0;exitDy=0;entryX=1;entryY=0.5;entryDx=0;entryDy=0;fontSize=20;" parent="1" source="UqmcxjYlmGOQxnhvRvWn-92" target="UqmcxjYlmGOQxnhvRvWn-82" edge="1">
          <mxGeometry width="50" height="50" relative="1" as="geometry">
            <mxPoint x="1900" y="1430" as="sourcePoint" />
            <mxPoint x="1860" y="1370" as="targetPoint" />
          </mxGeometry>
        </mxCell>
        <mxCell id="UqmcxjYlmGOQxnhvRvWn-96" value="M" style="text;html=1;whiteSpace=wrap;strokeColor=none;fillColor=none;align=center;verticalAlign=middle;rounded=0;fontSize=20;" parent="1" vertex="1">
          <mxGeometry x="410" y="1252.5" width="60" height="30" as="geometry" />
        </mxCell>
        <mxCell id="UqmcxjYlmGOQxnhvRvWn-98" value="N" style="text;html=1;whiteSpace=wrap;strokeColor=none;fillColor=none;align=center;verticalAlign=middle;rounded=0;fontSize=20;" parent="1" vertex="1">
          <mxGeometry x="910" y="1309" width="60" height="30" as="geometry" />
        </mxCell>
        <mxCell id="UqmcxjYlmGOQxnhvRvWn-99" value="M" style="text;html=1;whiteSpace=wrap;strokeColor=none;fillColor=none;align=center;verticalAlign=middle;rounded=0;fontSize=20;" parent="1" vertex="1">
          <mxGeometry x="390" y="1210" width="60" height="30" as="geometry" />
        </mxCell>
        <mxCell id="UqmcxjYlmGOQxnhvRvWn-100" value="N" style="text;html=1;whiteSpace=wrap;strokeColor=none;fillColor=none;align=center;verticalAlign=middle;rounded=0;fontSize=20;" parent="1" vertex="1">
          <mxGeometry x="900" y="752.5" width="60" height="30" as="geometry" />
        </mxCell>
        <mxCell id="UqmcxjYlmGOQxnhvRvWn-101" value="1" style="text;html=1;whiteSpace=wrap;strokeColor=none;fillColor=none;align=center;verticalAlign=middle;rounded=0;fontSize=20;" parent="1" vertex="1">
          <mxGeometry x="910" y="720" width="60" height="30" as="geometry" />
        </mxCell>
        <mxCell id="UqmcxjYlmGOQxnhvRvWn-102" value="M" style="text;html=1;whiteSpace=wrap;strokeColor=none;fillColor=none;align=center;verticalAlign=middle;rounded=0;fontSize=20;" parent="1" vertex="1">
          <mxGeometry x="370" y="722.5" width="60" height="30" as="geometry" />
        </mxCell>
        <mxCell id="UqmcxjYlmGOQxnhvRvWn-105" value="1" style="text;html=1;whiteSpace=wrap;strokeColor=none;fillColor=none;align=center;verticalAlign=middle;rounded=0;fontSize=20;" parent="1" vertex="1">
          <mxGeometry x="1040" y="770" width="60" height="30" as="geometry" />
        </mxCell>
        <mxCell id="UqmcxjYlmGOQxnhvRvWn-106" value="M" style="text;html=1;whiteSpace=wrap;strokeColor=none;fillColor=none;align=center;verticalAlign=middle;rounded=0;fontSize=20;" parent="1" vertex="1">
          <mxGeometry x="990" y="770" width="60" height="30" as="geometry" />
        </mxCell>
        <mxCell id="UqmcxjYlmGOQxnhvRvWn-110" value="N" style="text;html=1;whiteSpace=wrap;strokeColor=none;fillColor=none;align=center;verticalAlign=middle;rounded=0;fontSize=20;" parent="1" vertex="1">
          <mxGeometry x="990" y="1279" width="60" height="30" as="geometry" />
        </mxCell>
        <mxCell id="UqmcxjYlmGOQxnhvRvWn-115" value="" style="endArrow=none;html=1;rounded=0;exitX=1;exitY=0.5;exitDx=0;exitDy=0;fontSize=20;" parent="1" target="bX-nkgjppk_giDj6LDvc-14" edge="1">
          <mxGeometry width="50" height="50" relative="1" as="geometry">
            <mxPoint x="940" y="430" as="sourcePoint" />
            <mxPoint x="1000" y="472" as="targetPoint" />
          </mxGeometry>
        </mxCell>
        <mxCell id="wn23WGTJlnTn1GHfbGU1-1" value="Role" style="ellipse;whiteSpace=wrap;html=1;fontSize=20;" parent="1" vertex="1">
          <mxGeometry x="1420" y="460" width="140" height="55" as="geometry" />
        </mxCell>
        <mxCell id="wn23WGTJlnTn1GHfbGU1-3" value="" style="endArrow=none;html=1;rounded=0;entryX=0;entryY=0.5;entryDx=0;entryDy=0;fontSize=20;" parent="1" target="wn23WGTJlnTn1GHfbGU1-1" edge="1">
          <mxGeometry width="50" height="50" relative="1" as="geometry">
            <mxPoint x="1290" y="488" as="sourcePoint" />
            <mxPoint x="1396.44" y="421" as="targetPoint" />
            <Array as="points" />
          </mxGeometry>
        </mxCell>
        <mxCell id="wn23WGTJlnTn1GHfbGU1-4" value="Batch_no" style="ellipse;whiteSpace=wrap;html=1;fontSize=20;" parent="1" vertex="1">
          <mxGeometry x="770" y="525" width="140" height="55" as="geometry" />
        </mxCell>
        <mxCell id="wn23WGTJlnTn1GHfbGU1-5" value="" style="endArrow=none;html=1;rounded=0;exitX=0.104;exitY=-0.029;exitDx=0;exitDy=0;fontSize=20;exitPerimeter=0;" parent="1" source="bX-nkgjppk_giDj6LDvc-31" target="wn23WGTJlnTn1GHfbGU1-4" edge="1">
          <mxGeometry width="50" height="50" relative="1" as="geometry">
            <mxPoint x="930" y="700" as="sourcePoint" />
            <mxPoint x="942" y="600" as="targetPoint" />
          </mxGeometry>
        </mxCell>
        <mxCell id="wn23WGTJlnTn1GHfbGU1-6" value="Designation" style="ellipse;whiteSpace=wrap;html=1;fontSize=20;" parent="1" vertex="1">
          <mxGeometry x="1530" y="680" width="140" height="55" as="geometry" />
        </mxCell>
        <mxCell id="wn23WGTJlnTn1GHfbGU1-7" value="" style="endArrow=none;html=1;rounded=0;entryX=0.25;entryY=1;entryDx=0;entryDy=0;exitX=0;exitY=0.5;exitDx=0;exitDy=0;fontSize=20;" parent="1" source="wn23WGTJlnTn1GHfbGU1-6" edge="1">
          <mxGeometry width="50" height="50" relative="1" as="geometry">
            <mxPoint x="1511" y="697" as="sourcePoint" />
            <mxPoint x="1469" y="750" as="targetPoint" />
          </mxGeometry>
        </mxCell>
        <mxCell id="wn23WGTJlnTn1GHfbGU1-8" value="&lt;span&gt;SESSION&lt;/span&gt;" style="rounded=0;whiteSpace=wrap;html=1;fontSize=20;" parent="1" vertex="1">
          <mxGeometry x="980" y="1860" width="160" height="60" as="geometry" />
        </mxCell>
        <mxCell id="wn23WGTJlnTn1GHfbGU1-9" value="Session_Date" style="ellipse;whiteSpace=wrap;html=1;fontSize=20;" parent="1" vertex="1">
          <mxGeometry x="1204" y="1967" width="140" height="55" as="geometry" />
        </mxCell>
        <mxCell id="wn23WGTJlnTn1GHfbGU1-10" value="&lt;u&gt;Session_id&lt;/u&gt;" style="ellipse;whiteSpace=wrap;html=1;fontSize=20;" parent="1" vertex="1">
          <mxGeometry x="1134" y="2037" width="140" height="55" as="geometry" />
        </mxCell>
        <mxCell id="wn23WGTJlnTn1GHfbGU1-11" value="Session_Hours" style="ellipse;whiteSpace=wrap;html=1;fontSize=20;" parent="1" vertex="1">
          <mxGeometry x="1294" y="1847" width="140" height="55" as="geometry" />
        </mxCell>
        <mxCell id="wn23WGTJlnTn1GHfbGU1-12" value="Type" style="ellipse;whiteSpace=wrap;html=1;fontSize=20;" parent="1" vertex="1">
          <mxGeometry x="1204" y="1792" width="140" height="55" as="geometry" />
        </mxCell>
        <mxCell id="wn23WGTJlnTn1GHfbGU1-14" value="" style="endArrow=none;html=1;rounded=0;exitX=0;exitY=0.5;exitDx=0;exitDy=0;entryX=1;entryY=0.5;entryDx=0;entryDy=0;fontSize=20;" parent="1" source="wn23WGTJlnTn1GHfbGU1-11" target="wn23WGTJlnTn1GHfbGU1-8" edge="1">
          <mxGeometry width="50" height="50" relative="1" as="geometry">
            <mxPoint x="1194" y="1928.5" as="sourcePoint" />
            <mxPoint x="1124" y="1925.5" as="targetPoint" />
          </mxGeometry>
        </mxCell>
        <mxCell id="wn23WGTJlnTn1GHfbGU1-15" value="" style="endArrow=none;html=1;rounded=0;entryX=1;entryY=1;entryDx=0;entryDy=0;fontSize=20;" parent="1" source="wn23WGTJlnTn1GHfbGU1-9" target="wn23WGTJlnTn1GHfbGU1-8" edge="1">
          <mxGeometry width="50" height="50" relative="1" as="geometry">
            <mxPoint x="1194" y="1950" as="sourcePoint" />
            <mxPoint x="1124" y="1947" as="targetPoint" />
          </mxGeometry>
        </mxCell>
        <mxCell id="wn23WGTJlnTn1GHfbGU1-16" value="" style="endArrow=none;html=1;rounded=0;exitX=0;exitY=0.5;exitDx=0;exitDy=0;entryX=1;entryY=0;entryDx=0;entryDy=0;fontSize=20;" parent="1" target="wn23WGTJlnTn1GHfbGU1-8" edge="1">
          <mxGeometry width="50" height="50" relative="1" as="geometry">
            <mxPoint x="1204" y="1820" as="sourcePoint" />
            <mxPoint x="1134" y="1817" as="targetPoint" />
          </mxGeometry>
        </mxCell>
        <mxCell id="wn23WGTJlnTn1GHfbGU1-17" value="" style="endArrow=none;html=1;rounded=0;entryX=0.5;entryY=1;entryDx=0;entryDy=0;fontSize=20;" parent="1" source="wn23WGTJlnTn1GHfbGU1-10" target="wn23WGTJlnTn1GHfbGU1-8" edge="1">
          <mxGeometry width="50" height="50" relative="1" as="geometry">
            <mxPoint x="1124" y="1990" as="sourcePoint" />
            <mxPoint x="1054" y="1987" as="targetPoint" />
          </mxGeometry>
        </mxCell>
        <mxCell id="wn23WGTJlnTn1GHfbGU1-18" value="HAS" style="rhombus;whiteSpace=wrap;html=1;fontSize=20;" parent="1" vertex="1">
          <mxGeometry x="960" y="1540" width="160" height="150" as="geometry" />
        </mxCell>
        <mxCell id="mJOlF5-myvEGGW3RNeKA-1" value="" style="endArrow=none;html=1;rounded=0;exitX=0.5;exitY=1;exitDx=0;exitDy=0;fontSize=20;entryX=0.488;entryY=0.047;entryDx=0;entryDy=0;entryPerimeter=0;" parent="1" source="UqmcxjYlmGOQxnhvRvWn-4" target="wn23WGTJlnTn1GHfbGU1-18" edge="1">
          <mxGeometry width="50" height="50" relative="1" as="geometry">
            <mxPoint x="1070" y="1520" as="sourcePoint" />
            <mxPoint x="1050" y="1580" as="targetPoint" />
          </mxGeometry>
        </mxCell>
        <mxCell id="mJOlF5-myvEGGW3RNeKA-2" value="" style="endArrow=none;html=1;rounded=0;exitX=0.5;exitY=1;exitDx=0;exitDy=0;fontSize=20;" parent="1" edge="1">
          <mxGeometry width="50" height="50" relative="1" as="geometry">
            <mxPoint x="1042" y="1690" as="sourcePoint" />
            <mxPoint x="1040" y="1860" as="targetPoint" />
          </mxGeometry>
        </mxCell>
        <mxCell id="mJOlF5-myvEGGW3RNeKA-28" value="HAS" style="rhombus;whiteSpace=wrap;html=1;fontSize=20;" parent="1" vertex="1">
          <mxGeometry x="1710" y="1697" width="160" height="150" as="geometry" />
        </mxCell>
        <mxCell id="mJOlF5-myvEGGW3RNeKA-37" value="" style="endArrow=none;html=1;rounded=0;fontSize=20;entryX=0.5;entryY=1;entryDx=0;entryDy=0;" parent="1" target="mJOlF5-myvEGGW3RNeKA-28" edge="1">
          <mxGeometry width="50" height="50" relative="1" as="geometry">
            <mxPoint x="1030" y="1920" as="sourcePoint" />
            <mxPoint x="1930" y="2190" as="targetPoint" />
            <Array as="points">
              <mxPoint x="1030" y="2200" />
              <mxPoint x="1790" y="2200" />
            </Array>
          </mxGeometry>
        </mxCell>
        <mxCell id="mJOlF5-myvEGGW3RNeKA-38" value="" style="endArrow=none;html=1;rounded=0;fontSize=20;entryX=0.5;entryY=0;entryDx=0;entryDy=0;" parent="1" target="mJOlF5-myvEGGW3RNeKA-28" edge="1">
          <mxGeometry width="50" height="50" relative="1" as="geometry">
            <mxPoint x="1789" y="1390" as="sourcePoint" />
            <mxPoint x="1789" y="1690" as="targetPoint" />
          </mxGeometry>
        </mxCell>
        <mxCell id="mJOlF5-myvEGGW3RNeKA-40" value="M" style="text;html=1;whiteSpace=wrap;strokeColor=none;fillColor=none;align=center;verticalAlign=middle;rounded=0;fontSize=20;" parent="1" vertex="1">
          <mxGeometry x="1640" y="1317.5" width="60" height="30" as="geometry" />
        </mxCell>
        <mxCell id="mJOlF5-myvEGGW3RNeKA-42" value="M" style="text;html=1;whiteSpace=wrap;strokeColor=none;fillColor=none;align=center;verticalAlign=middle;rounded=0;fontSize=20;" parent="1" vertex="1">
          <mxGeometry x="1030" y="1830" width="60" height="30" as="geometry" />
        </mxCell>
        <mxCell id="mJOlF5-myvEGGW3RNeKA-43" value="1" style="text;html=1;whiteSpace=wrap;strokeColor=none;fillColor=none;align=center;verticalAlign=middle;rounded=0;fontSize=20;" parent="1" vertex="1">
          <mxGeometry x="1020" y="1370" width="60" height="30" as="geometry" />
        </mxCell>
        <mxCell id="mJOlF5-myvEGGW3RNeKA-44" value="1" style="text;html=1;whiteSpace=wrap;strokeColor=none;fillColor=none;align=center;verticalAlign=middle;rounded=0;fontSize=20;" parent="1" vertex="1">
          <mxGeometry x="1010" y="1920" width="60" height="30" as="geometry" />
        </mxCell>
        <mxCell id="mJOlF5-myvEGGW3RNeKA-45" value="M" style="text;html=1;whiteSpace=wrap;strokeColor=none;fillColor=none;align=center;verticalAlign=middle;rounded=0;fontSize=20;" parent="1" vertex="1">
          <mxGeometry x="1750" y="1390" width="60" height="30" as="geometry" />
        </mxCell>
        <mxCell id="mJOlF5-myvEGGW3RNeKA-46" value="Mid_Marks" style="ellipse;whiteSpace=wrap;html=1;fontSize=20;" parent="1" vertex="1">
          <mxGeometry x="280" y="1470" width="140" height="55" as="geometry" />
        </mxCell>
        <mxCell id="mJOlF5-myvEGGW3RNeKA-48" value="" style="endArrow=none;html=1;rounded=0;entryX=0.5;entryY=1;entryDx=0;entryDy=0;fontSize=20;" parent="1" source="mJOlF5-myvEGGW3RNeKA-46" edge="1">
          <mxGeometry width="50" height="50" relative="1" as="geometry">
            <mxPoint x="355" y="1380" as="sourcePoint" />
            <mxPoint x="370" y="1300" as="targetPoint" />
          </mxGeometry>
        </mxCell>
        <mxCell id="mJOlF5-myvEGGW3RNeKA-49" value="Assesment_Marks" style="ellipse;whiteSpace=wrap;html=1;fontSize=20;" parent="1" vertex="1">
          <mxGeometry x="370" y="1400" width="180" height="55" as="geometry" />
        </mxCell>
        <mxCell id="mJOlF5-myvEGGW3RNeKA-51" value="" style="endArrow=none;html=1;rounded=0;entryX=0.5;entryY=1;entryDx=0;entryDy=0;fontSize=20;" parent="1" source="mJOlF5-myvEGGW3RNeKA-49" edge="1">
          <mxGeometry width="50" height="50" relative="1" as="geometry">
            <mxPoint x="380" y="1485" as="sourcePoint" />
            <mxPoint x="380" y="1295" as="targetPoint" />
          </mxGeometry>
        </mxCell>
        <mxCell id="mJOlF5-myvEGGW3RNeKA-52" value="Grade" style="ellipse;whiteSpace=wrap;html=1;fontSize=20;" parent="1" vertex="1">
          <mxGeometry x="440" y="935" width="140" height="55" as="geometry" />
        </mxCell>
        <mxCell id="mJOlF5-myvEGGW3RNeKA-53" value="" style="endArrow=none;html=1;rounded=0;fontSize=20;entryX=0.75;entryY=0.987;entryDx=0;entryDy=0;entryPerimeter=0;" parent="1" source="UqmcxjYlmGOQxnhvRvWn-24" target="mJOlF5-myvEGGW3RNeKA-52" edge="1">
          <mxGeometry width="50" height="50" relative="1" as="geometry">
            <mxPoint x="587" y="1032" as="sourcePoint" />
            <mxPoint x="550" y="990" as="targetPoint" />
          </mxGeometry>
        </mxCell>
        <mxCell id="mJOlF5-myvEGGW3RNeKA-54" value="HAS" style="rhombus;whiteSpace=wrap;html=1;fontSize=20;" parent="1" vertex="1">
          <mxGeometry x="1095" y="1097.5" width="125" height="102.5" as="geometry" />
        </mxCell>
        <mxCell id="mJOlF5-myvEGGW3RNeKA-55" value="" style="endArrow=none;html=1;rounded=0;entryX=0.5;entryY=1;entryDx=0;entryDy=0;fontSize=20;" parent="1" edge="1">
          <mxGeometry width="50" height="50" relative="1" as="geometry">
            <mxPoint x="1158" y="1100" as="sourcePoint" />
            <mxPoint x="1339" y="767.5" as="targetPoint" />
            <Array as="points">
              <mxPoint x="1210" y="1070" />
            </Array>
          </mxGeometry>
        </mxCell>
        <mxCell id="mJOlF5-myvEGGW3RNeKA-56" value="" style="endArrow=none;html=1;rounded=0;exitX=0.5;exitY=0;exitDx=0;exitDy=0;fontSize=20;entryX=0.5;entryY=1;entryDx=0;entryDy=0;" parent="1" edge="1">
          <mxGeometry width="50" height="50" relative="1" as="geometry">
            <mxPoint x="1077.5" y="1307.5" as="sourcePoint" />
            <mxPoint x="1160" y="1200" as="targetPoint" />
          </mxGeometry>
        </mxCell>
        <mxCell id="mJOlF5-myvEGGW3RNeKA-57" value="N" style="text;html=1;whiteSpace=wrap;strokeColor=none;fillColor=none;align=center;verticalAlign=middle;rounded=0;fontSize=20;" parent="1" vertex="1">
          <mxGeometry x="1060" y="1287.5" width="30" height="20" as="geometry" />
        </mxCell>
        <mxCell id="mJOlF5-myvEGGW3RNeKA-59" value="M" style="text;html=1;whiteSpace=wrap;strokeColor=none;fillColor=none;align=center;verticalAlign=middle;rounded=0;fontSize=20;" parent="1" vertex="1">
          <mxGeometry x="1294" y="770" width="50" height="20" as="geometry" />
        </mxCell>
        <mxCell id="mJOlF5-myvEGGW3RNeKA-60" value="Semester" style="ellipse;whiteSpace=wrap;html=1;fontSize=20;" parent="1" vertex="1">
          <mxGeometry x="770" y="1325" width="140" height="55" as="geometry" />
        </mxCell>
        <mxCell id="mJOlF5-myvEGGW3RNeKA-61" value="" style="endArrow=none;html=1;rounded=0;fontSize=20;exitX=1;exitY=1;exitDx=0;exitDy=0;" parent="1" source="mJOlF5-myvEGGW3RNeKA-60" edge="1">
          <mxGeometry width="50" height="50" relative="1" as="geometry">
            <mxPoint x="921.5" y="1415" as="sourcePoint" />
            <mxPoint x="958.5" y="1365" as="targetPoint" />
          </mxGeometry>
        </mxCell>
        <mxCell id="mJOlF5-myvEGGW3RNeKA-62" value="" style="endArrow=none;html=1;rounded=0;fontSize=20;exitX=0.662;exitY=0.115;exitDx=0;exitDy=0;exitPerimeter=0;" parent="1" source="mJOlF5-myvEGGW3RNeKA-63" edge="1">
          <mxGeometry width="50" height="50" relative="1" as="geometry">
            <mxPoint x="923" y="1422.5" as="sourcePoint" />
            <mxPoint x="960" y="1372.5" as="targetPoint" />
          </mxGeometry>
        </mxCell>
        <mxCell id="mJOlF5-myvEGGW3RNeKA-63" value="Total_Hours" style="ellipse;whiteSpace=wrap;html=1;fontSize=20;" parent="1" vertex="1">
          <mxGeometry x="700" y="1427.5" width="140" height="55" as="geometry" />
        </mxCell>
        <mxCell id="mJOlF5-myvEGGW3RNeKA-64" value="Weekly_Hours" style="ellipse;whiteSpace=wrap;html=1;fontSize=20;" parent="1" vertex="1">
          <mxGeometry x="815" y="1150" width="140" height="55" as="geometry" />
        </mxCell>
        <mxCell id="mJOlF5-myvEGGW3RNeKA-65" value="" style="endArrow=none;html=1;rounded=0;fontSize=20;exitX=0.076;exitY=-0.004;exitDx=0;exitDy=0;exitPerimeter=0;" parent="1" source="UqmcxjYlmGOQxnhvRvWn-4" edge="1">
          <mxGeometry width="50" height="50" relative="1" as="geometry">
            <mxPoint x="883" y="1252.5" as="sourcePoint" />
            <mxPoint x="920" y="1202.5" as="targetPoint" />
          </mxGeometry>
        </mxCell>
        <mxCell id="mJOlF5-myvEGGW3RNeKA-66" value="Semester" style="ellipse;whiteSpace=wrap;html=1;fontSize=20;" parent="1" vertex="1">
          <mxGeometry x="160" y="550" width="140" height="55" as="geometry" />
        </mxCell>
        <mxCell id="mJOlF5-myvEGGW3RNeKA-67" value="" style="endArrow=none;html=1;rounded=0;fontSize=20;entryX=0.4;entryY=0;entryDx=0;entryDy=0;entryPerimeter=0;exitX=0.403;exitY=0.971;exitDx=0;exitDy=0;exitPerimeter=0;" parent="1" source="mJOlF5-myvEGGW3RNeKA-66" target="UqmcxjYlmGOQxnhvRvWn-29" edge="1">
          <mxGeometry width="50" height="50" relative="1" as="geometry">
            <mxPoint x="220" y="610" as="sourcePoint" />
            <mxPoint x="350" y="610" as="targetPoint" />
          </mxGeometry>
        </mxCell>
        <mxCell id="dSnF24T7HCh-YugQs9OC-1" value="&lt;font&gt;MEDICAL&lt;/font&gt;" style="rounded=0;whiteSpace=wrap;html=1;fontSize=20;labelBackgroundColor=default;" parent="1" vertex="1">
          <mxGeometry x="370" y="160" width="160" height="60" as="geometry" />
        </mxCell>
        <mxCell id="dSnF24T7HCh-YugQs9OC-2" value="" style="endArrow=none;html=1;rounded=0;exitX=0.5;exitY=0;exitDx=0;exitDy=0;fontSize=20;" parent="1" source="dSnF24T7HCh-YugQs9OC-4" edge="1">
          <mxGeometry width="50" height="50" relative="1" as="geometry">
            <mxPoint x="563" y="352.5" as="sourcePoint" />
            <mxPoint x="450" y="223.5" as="targetPoint" />
          </mxGeometry>
        </mxCell>
        <mxCell id="dSnF24T7HCh-YugQs9OC-4" value="HAS" style="rhombus;whiteSpace=wrap;html=1;fontSize=20;" parent="1" vertex="1">
          <mxGeometry x="370" y="352.5" width="160" height="150" as="geometry" />
        </mxCell>
        <mxCell id="dSnF24T7HCh-YugQs9OC-5" value="" style="endArrow=none;html=1;rounded=0;fontSize=20;exitX=0;exitY=0;exitDx=0;exitDy=0;" parent="1" source="bX-nkgjppk_giDj6LDvc-31" edge="1">
          <mxGeometry width="50" height="50" relative="1" as="geometry">
            <mxPoint x="920" y="650" as="sourcePoint" />
            <mxPoint x="449.17" y="487.75" as="targetPoint" />
            <Array as="points">
              <mxPoint x="860" y="620" />
              <mxPoint x="450" y="610" />
            </Array>
          </mxGeometry>
        </mxCell>
        <mxCell id="dSnF24T7HCh-YugQs9OC-6" value="HAS" style="rhombus;whiteSpace=wrap;html=1;fontSize=20;" parent="1" vertex="1">
          <mxGeometry x="70" y="270" width="160" height="150" as="geometry" />
        </mxCell>
        <mxCell id="dSnF24T7HCh-YugQs9OC-7" value="" style="endArrow=none;html=1;rounded=0;fontSize=20;entryX=0;entryY=0.75;entryDx=0;entryDy=0;exitX=0.5;exitY=0;exitDx=0;exitDy=0;" parent="1" source="dSnF24T7HCh-YugQs9OC-6" edge="1">
          <mxGeometry width="50" height="50" relative="1" as="geometry">
            <mxPoint x="150" y="260" as="sourcePoint" />
            <mxPoint x="370" y="185" as="targetPoint" />
            <Array as="points">
              <mxPoint x="150" y="185" />
            </Array>
          </mxGeometry>
        </mxCell>
        <mxCell id="dSnF24T7HCh-YugQs9OC-8" value="" style="endArrow=none;html=1;rounded=0;fontSize=20;exitX=0;exitY=0.25;exitDx=0;exitDy=0;" parent="1" source="mJOlF5-myvEGGW3RNeKA-43" edge="1">
          <mxGeometry width="50" height="50" relative="1" as="geometry">
            <mxPoint x="880" y="1490" as="sourcePoint" />
            <mxPoint x="150" y="420" as="targetPoint" />
            <Array as="points">
              <mxPoint x="1000" y="1510" />
              <mxPoint x="880" y="1670" />
              <mxPoint x="410" y="1670" />
              <mxPoint x="-150" y="1660" />
              <mxPoint x="-160" y="500" />
              <mxPoint x="150" y="500" />
            </Array>
          </mxGeometry>
        </mxCell>
        <mxCell id="dSnF24T7HCh-YugQs9OC-10" style="edgeStyle=orthogonalEdgeStyle;rounded=0;orthogonalLoop=1;jettySize=auto;html=1;exitX=0.5;exitY=1;exitDx=0;exitDy=0;" parent="1" source="UqmcxjYlmGOQxnhvRvWn-59" target="UqmcxjYlmGOQxnhvRvWn-59" edge="1">
          <mxGeometry relative="1" as="geometry" />
        </mxCell>
        <mxCell id="dSnF24T7HCh-YugQs9OC-12" value="Medical_id" style="ellipse;whiteSpace=wrap;html=1;fontSize=20;" parent="1" vertex="1">
          <mxGeometry x="450" y="30" width="140" height="55" as="geometry" />
        </mxCell>
        <mxCell id="dSnF24T7HCh-YugQs9OC-14" value="" style="endArrow=none;html=1;rounded=0;fontSize=20;entryX=0.673;entryY=-0.045;entryDx=0;entryDy=0;entryPerimeter=0;exitX=0.343;exitY=0.909;exitDx=0;exitDy=0;exitPerimeter=0;" parent="1" target="dSnF24T7HCh-YugQs9OC-1" edge="1" source="dSnF24T7HCh-YugQs9OC-12">
          <mxGeometry width="50" height="50" relative="1" as="geometry">
            <mxPoint x="470" y="95" as="sourcePoint" />
            <mxPoint x="470" y="150" as="targetPoint" />
          </mxGeometry>
        </mxCell>
        <mxCell id="dSnF24T7HCh-YugQs9OC-15" value="Exam_Type" style="ellipse;whiteSpace=wrap;html=1;fontSize=20;" parent="1" vertex="1">
          <mxGeometry x="570" y="210" width="140" height="55" as="geometry" />
        </mxCell>
        <mxCell id="dSnF24T7HCh-YugQs9OC-16" value="Status" style="ellipse;whiteSpace=wrap;html=1;fontSize=20;" parent="1" vertex="1">
          <mxGeometry x="220" y="70" width="140" height="55" as="geometry" />
        </mxCell>
        <mxCell id="dSnF24T7HCh-YugQs9OC-17" value="Date_Submitted_Date" style="ellipse;whiteSpace=wrap;html=1;fontSize=20;" parent="1" vertex="1">
          <mxGeometry x="640" y="130" width="220" height="85" as="geometry" />
        </mxCell>
        <mxCell id="dSnF24T7HCh-YugQs9OC-18" value="" style="endArrow=none;html=1;rounded=0;exitX=0.79;exitY=0.839;exitDx=0;exitDy=0;fontSize=20;exitPerimeter=0;entryX=0.21;entryY=0.014;entryDx=0;entryDy=0;entryPerimeter=0;" parent="1" source="dSnF24T7HCh-YugQs9OC-16" target="dSnF24T7HCh-YugQs9OC-1" edge="1">
          <mxGeometry width="50" height="50" relative="1" as="geometry">
            <mxPoint x="330" y="125" as="sourcePoint" />
            <mxPoint x="390" y="150" as="targetPoint" />
          </mxGeometry>
        </mxCell>
        <mxCell id="dSnF24T7HCh-YugQs9OC-19" value="" style="endArrow=none;html=1;rounded=0;exitX=1;exitY=0.5;exitDx=0;exitDy=0;fontSize=20;entryX=0.286;entryY=0;entryDx=0;entryDy=0;entryPerimeter=0;" parent="1" target="dSnF24T7HCh-YugQs9OC-15" edge="1">
          <mxGeometry width="50" height="50" relative="1" as="geometry">
            <mxPoint x="530" y="220" as="sourcePoint" />
            <mxPoint x="590" y="180" as="targetPoint" />
          </mxGeometry>
        </mxCell>
        <mxCell id="dSnF24T7HCh-YugQs9OC-20" value="" style="endArrow=none;html=1;rounded=0;exitX=1;exitY=0.5;exitDx=0;exitDy=0;fontSize=20;entryX=0;entryY=0.5;entryDx=0;entryDy=0;" parent="1" target="dSnF24T7HCh-YugQs9OC-17" edge="1">
          <mxGeometry width="50" height="50" relative="1" as="geometry">
            <mxPoint x="530" y="192.5" as="sourcePoint" />
            <mxPoint x="590" y="152.5" as="targetPoint" />
          </mxGeometry>
        </mxCell>
        <mxCell id="dSnF24T7HCh-YugQs9OC-23" value="1" style="text;html=1;whiteSpace=wrap;strokeColor=none;fillColor=none;align=center;verticalAlign=middle;rounded=0;" parent="1" vertex="1">
          <mxGeometry x="920" y="692.5" width="60" height="30" as="geometry" />
        </mxCell>
        <mxCell id="dSnF24T7HCh-YugQs9OC-24" style="edgeStyle=orthogonalEdgeStyle;rounded=0;orthogonalLoop=1;jettySize=auto;html=1;exitX=0.5;exitY=1;exitDx=0;exitDy=0;" parent="1" edge="1">
          <mxGeometry relative="1" as="geometry">
            <mxPoint x="480" y="265" as="sourcePoint" />
            <mxPoint x="480" y="265" as="targetPoint" />
          </mxGeometry>
        </mxCell>
        <mxCell id="dSnF24T7HCh-YugQs9OC-25" value="M" style="text;html=1;whiteSpace=wrap;strokeColor=none;fillColor=none;align=center;verticalAlign=middle;rounded=0;" parent="1" vertex="1">
          <mxGeometry x="430" y="220" width="60" height="30" as="geometry" />
        </mxCell>
        <mxCell id="dSnF24T7HCh-YugQs9OC-26" value="M" style="text;html=1;whiteSpace=wrap;strokeColor=none;fillColor=none;align=center;verticalAlign=middle;rounded=0;" parent="1" vertex="1">
          <mxGeometry x="320" y="157.5" width="60" height="30" as="geometry" />
        </mxCell>
        <mxCell id="dSnF24T7HCh-YugQs9OC-27" value="1" style="text;html=1;whiteSpace=wrap;strokeColor=none;fillColor=none;align=center;verticalAlign=middle;rounded=0;" parent="1" vertex="1">
          <mxGeometry x="980" y="1375" width="60" height="20" as="geometry" />
        </mxCell>
        <mxCell id="dSnF24T7HCh-YugQs9OC-28" value="&lt;font&gt;DEPARTMENT&lt;/font&gt;" style="rounded=0;whiteSpace=wrap;html=1;fontSize=20;labelBackgroundColor=default;" parent="1" vertex="1">
          <mxGeometry x="1137.5" y="95" width="160" height="60" as="geometry" />
        </mxCell>
        <mxCell id="dSnF24T7HCh-YugQs9OC-29" value="" style="endArrow=none;html=1;rounded=0;fontSize=20;exitX=0.5;exitY=0;exitDx=0;exitDy=0;" parent="1" edge="1">
          <mxGeometry width="50" height="50" relative="1" as="geometry">
            <mxPoint x="883" y="280" as="sourcePoint" />
            <mxPoint x="1137" y="115" as="targetPoint" />
            <Array as="points">
              <mxPoint x="883" y="195" />
              <mxPoint x="883" y="155" />
              <mxPoint x="883" y="115" />
            </Array>
          </mxGeometry>
        </mxCell>
        <mxCell id="dSnF24T7HCh-YugQs9OC-30" value="HAS" style="rhombus;whiteSpace=wrap;html=1;fontSize=20;" parent="1" vertex="1">
          <mxGeometry x="835" y="275" width="100" height="100" as="geometry" />
        </mxCell>
        <mxCell id="dSnF24T7HCh-YugQs9OC-32" value="" style="endArrow=none;html=1;rounded=0;exitX=0.5;exitY=1;exitDx=0;exitDy=0;fontSize=20;entryX=0.17;entryY=-0.021;entryDx=0;entryDy=0;entryPerimeter=0;" parent="1" source="dSnF24T7HCh-YugQs9OC-30" target="bX-nkgjppk_giDj6LDvc-31" edge="1">
          <mxGeometry width="50" height="50" relative="1" as="geometry">
            <mxPoint x="920" y="375" as="sourcePoint" />
            <mxPoint x="960" y="590" as="targetPoint" />
            <Array as="points">
              <mxPoint x="885" y="480" />
              <mxPoint x="986" y="480" />
            </Array>
          </mxGeometry>
        </mxCell>
        <mxCell id="dSnF24T7HCh-YugQs9OC-33" value="Department_Id" style="ellipse;whiteSpace=wrap;html=1;fontSize=20;" parent="1" vertex="1">
          <mxGeometry x="1360" y="80" width="140" height="55" as="geometry" />
        </mxCell>
        <mxCell id="dSnF24T7HCh-YugQs9OC-34" value="" style="endArrow=none;html=1;rounded=0;exitX=1;exitY=0.75;exitDx=0;exitDy=0;fontSize=20;" parent="1" source="dSnF24T7HCh-YugQs9OC-28" edge="1">
          <mxGeometry width="50" height="50" relative="1" as="geometry">
            <mxPoint x="1289" y="223.5" as="sourcePoint" />
            <mxPoint x="1380" y="125" as="targetPoint" />
            <Array as="points" />
          </mxGeometry>
        </mxCell>
        <mxCell id="dSnF24T7HCh-YugQs9OC-37" value="Name" style="ellipse;whiteSpace=wrap;html=1;fontSize=20;" parent="1" vertex="1">
          <mxGeometry x="1270" width="140" height="55" as="geometry" />
        </mxCell>
        <mxCell id="dSnF24T7HCh-YugQs9OC-38" value="" style="endArrow=none;html=1;rounded=0;fontSize=20;exitX=0.604;exitY=0.038;exitDx=0;exitDy=0;exitPerimeter=0;" parent="1" source="dSnF24T7HCh-YugQs9OC-28" edge="1">
          <mxGeometry width="50" height="50" relative="1" as="geometry">
            <mxPoint x="1230" y="65" as="sourcePoint" />
            <mxPoint x="1290" y="50" as="targetPoint" />
            <Array as="points" />
          </mxGeometry>
        </mxCell>
        <mxCell id="dSnF24T7HCh-YugQs9OC-39" value="Faculty_Name" style="ellipse;whiteSpace=wrap;html=1;fontSize=20;" parent="1" vertex="1">
          <mxGeometry x="1030" y="15" width="140" height="55" as="geometry" />
        </mxCell>
        <mxCell id="dSnF24T7HCh-YugQs9OC-40" value="" style="endArrow=none;html=1;rounded=0;fontSize=20;exitX=0.155;exitY=-0.001;exitDx=0;exitDy=0;exitPerimeter=0;" parent="1" source="dSnF24T7HCh-YugQs9OC-28" edge="1">
          <mxGeometry width="50" height="50" relative="1" as="geometry">
            <mxPoint x="1070" y="117" as="sourcePoint" />
            <mxPoint x="1126" y="70" as="targetPoint" />
            <Array as="points" />
          </mxGeometry>
        </mxCell>
        <mxCell id="dSnF24T7HCh-YugQs9OC-41" value="1" style="text;html=1;whiteSpace=wrap;strokeColor=none;fillColor=none;align=center;verticalAlign=middle;rounded=0;" parent="1" vertex="1">
          <mxGeometry x="1100" y="120" width="60" height="30" as="geometry" />
        </mxCell>
        <mxCell id="dSnF24T7HCh-YugQs9OC-42" value="M" style="text;html=1;whiteSpace=wrap;strokeColor=none;fillColor=none;align=center;verticalAlign=middle;rounded=0;" parent="1" vertex="1">
          <mxGeometry x="970" y="680" width="60" height="30" as="geometry" />
        </mxCell>
        <mxCell id="JFMOSdigGI6BDLebpAui-3" value="Status" style="ellipse;whiteSpace=wrap;html=1;fontSize=20;" parent="1" vertex="1">
          <mxGeometry x="827" y="935" width="140" height="55" as="geometry" />
        </mxCell>
        <mxCell id="JFMOSdigGI6BDLebpAui-4" value="" style="endArrow=none;html=1;rounded=0;exitX=1;exitY=1;exitDx=0;exitDy=0;entryX=0;entryY=0;entryDx=0;entryDy=0;" parent="1" source="JFMOSdigGI6BDLebpAui-3" target="UqmcxjYlmGOQxnhvRvWn-2" edge="1">
          <mxGeometry width="50" height="50" relative="1" as="geometry">
            <mxPoint x="980" y="1080" as="sourcePoint" />
            <mxPoint x="990" y="1010" as="targetPoint" />
          </mxGeometry>
        </mxCell>
      </root>
    </mxGraphModel>
  </diagram>
</mxfile>
